
<svg width="100" height="40" viewBox="0 0 100 40" fill="none" xmlns="http://www.w3.org/2000/svg">
<rect width="100" height="40" rx="10" fill="#6E91EC"/>
<path d="M38.1633 26.771C38.1633 26.771 37.0047 27.909 36.7207 28.2426C36.2582 28.7362 35.7132 28.9693 34.9988 28.9693C34.9301 28.9693 34.8568 28.9693 34.7881 28.9647C33.4279 28.8779 32.1639 28.3477 31.2159 27.8953C28.6238 26.643 26.3477 24.8651 24.4563 22.6119C22.8946 20.7335 21.8504 18.9968 21.1589 17.1321C20.733 15.9941 20.5773 15.1074 20.646 14.2711C20.6918 13.7363 20.8979 13.293 21.278 12.9137L22.8397 11.3552C23.0641 11.145 23.3022 11.0307 23.5358 11.0307C23.8243 11.0307 24.0579 11.2044 24.2044 11.3506C24.209 11.3552 24.2136 11.3598 24.2181 11.3643C24.4975 11.6248 24.7631 11.8945 25.0425 12.1824C25.1845 12.3287 25.331 12.4749 25.4776 12.6257L26.7278 13.8735C27.2133 14.3579 27.2133 14.8058 26.7278 15.2903C26.595 15.4228 26.4668 15.5553 26.334 15.6833C25.9493 16.0764 26.2515 15.7748 25.853 16.1313C25.8439 16.1404 25.8347 16.145 25.8301 16.1541C25.4363 16.5472 25.5096 16.9311 25.592 17.1916C25.5966 17.2053 25.6012 17.219 25.6057 17.2327C25.9309 18.0188 26.3889 18.7592 27.085 19.6413L27.0896 19.6459C28.3536 21.1998 29.6862 22.4109 31.1563 23.3387C31.3441 23.4575 31.5364 23.5535 31.7196 23.6449C31.8845 23.7272 32.0402 23.8049 32.173 23.8871C32.1913 23.8963 32.2097 23.91 32.228 23.9191C32.3837 23.9968 32.5302 24.0334 32.6814 24.0334C33.0615 24.0334 33.2996 23.7957 33.3775 23.718L34.2752 22.8222C34.4309 22.6668 34.6782 22.4794 34.9667 22.4794C35.2506 22.4794 35.4842 22.6576 35.6262 22.813C35.6308 22.8176 35.6308 22.8176 35.6353 22.8222L38.1587 25.3404C38.6305 25.8066 38.1633 26.771 38.1633 26.771Z" fill="white"/>
<path d="M60.2727 18H58.8636C58.7803 17.5947 58.6345 17.2386 58.4261 16.9318C58.2216 16.625 57.9716 16.3674 57.6761 16.1591C57.3845 15.947 57.0606 15.7879 56.7045 15.6818C56.3485 15.5758 55.9773 15.5227 55.5909 15.5227C54.8864 15.5227 54.2481 15.7008 53.6761 16.0568C53.108 16.4129 52.6553 16.9375 52.3182 17.6307C51.9848 18.3239 51.8182 19.1742 51.8182 20.1818C51.8182 21.1894 51.9848 22.0398 52.3182 22.733C52.6553 23.4261 53.108 23.9508 53.6761 24.3068C54.2481 24.6629 54.8864 24.8409 55.5909 24.8409C55.9773 24.8409 56.3485 24.7879 56.7045 24.6818C57.0606 24.5758 57.3845 24.4186 57.6761 24.2102C57.9716 23.9981 58.2216 23.7386 58.4261 23.4318C58.6345 23.1212 58.7803 22.7652 58.8636 22.3636H60.2727C60.1667 22.9583 59.9735 23.4905 59.6932 23.9602C59.4129 24.4299 59.0644 24.8295 58.6477 25.1591C58.2311 25.4848 57.7633 25.733 57.2443 25.9034C56.7292 26.0739 56.178 26.1591 55.5909 26.1591C54.5985 26.1591 53.7159 25.9167 52.9432 25.4318C52.1705 24.947 51.5625 24.2576 51.1193 23.3636C50.6761 22.4697 50.4545 21.4091 50.4545 20.1818C50.4545 18.9545 50.6761 17.8939 51.1193 17C51.5625 16.1061 52.1705 15.4167 52.9432 14.9318C53.7159 14.447 54.5985 14.2045 55.5909 14.2045C56.178 14.2045 56.7292 14.2898 57.2443 14.4602C57.7633 14.6307 58.2311 14.8807 58.6477 15.2102C59.0644 15.536 59.4129 15.9337 59.6932 16.4034C59.9735 16.8693 60.1667 17.4015 60.2727 18ZM64.9361 26.2045C64.383 26.2045 63.8812 26.1004 63.4304 25.892C62.9796 25.6799 62.6217 25.375 62.3565 24.9773C62.0914 24.5758 61.9588 24.0909 61.9588 23.5227C61.9588 23.0227 62.0573 22.6174 62.2543 22.3068C62.4512 21.9924 62.7145 21.7462 63.044 21.5682C63.3736 21.3902 63.7372 21.2576 64.1349 21.1705C64.5365 21.0795 64.9399 21.0076 65.3452 20.9545C65.8755 20.8864 66.3054 20.8352 66.6349 20.8011C66.9683 20.7633 67.2107 20.7008 67.3622 20.6136C67.5175 20.5265 67.5952 20.375 67.5952 20.1591V20.1136C67.5952 19.553 67.4418 19.1174 67.1349 18.8068C66.8319 18.4962 66.3717 18.3409 65.7543 18.3409C65.1141 18.3409 64.6122 18.4811 64.2486 18.7614C63.8849 19.0417 63.6293 19.3409 63.4815 19.6591L62.2088 19.2045C62.4361 18.6742 62.7391 18.2614 63.1179 17.9659C63.5005 17.6667 63.9171 17.4583 64.3679 17.3409C64.8224 17.2197 65.2694 17.1591 65.7088 17.1591C65.9891 17.1591 66.3111 17.1932 66.6747 17.2614C67.0421 17.3258 67.3963 17.4602 67.7372 17.6648C68.0819 17.8693 68.3679 18.178 68.5952 18.5909C68.8224 19.0038 68.9361 19.5568 68.9361 20.25V26H67.5952V24.8182H67.527C67.4361 25.0076 67.2846 25.2102 67.0724 25.4261C66.8603 25.642 66.5781 25.8258 66.2259 25.9773C65.8736 26.1288 65.4437 26.2045 64.9361 26.2045ZM65.1406 25C65.6709 25 66.1179 24.8958 66.4815 24.6875C66.849 24.4792 67.1255 24.2102 67.3111 23.8807C67.5005 23.5511 67.5952 23.2045 67.5952 22.8409V21.6136C67.5384 21.6818 67.4134 21.7443 67.2202 21.8011C67.0308 21.8542 66.8111 21.9015 66.5611 21.9432C66.3149 21.9811 66.0743 22.0152 65.8395 22.0455C65.6084 22.072 65.4209 22.0947 65.277 22.1136C64.9285 22.1591 64.6027 22.233 64.2997 22.3352C64.0005 22.4337 63.758 22.5833 63.5724 22.7841C63.3906 22.9811 63.2997 23.25 63.2997 23.5909C63.2997 24.0568 63.4721 24.4091 63.8168 24.6477C64.1652 24.8826 64.6065 25 65.1406 25ZM72.7244 14.3636V26H71.3835V14.3636H72.7244ZM76.5213 14.3636V26H75.1804V14.3636H76.5213Z" fill="white"/>
</svg>
