
<svg width="74" height="25" viewBox="0 0 74 25" fill="none" xmlns="http://www.w3.org/2000/svg">
<rect x="0.5" y="0.5" width="73" height="24" rx="4.5" fill="#F4F2F8"/>
<rect x="0.5" y="0.5" width="73" height="24" rx="4.5" stroke="white"/>
<path d="M14.5234 11.6016H13.3047C13.2578 11.3411 13.1706 11.112 13.043 10.9141C12.9154 10.7161 12.7591 10.5482 12.5742 10.4102C12.3893 10.2721 12.1823 10.168 11.9531 10.0977C11.7266 10.0273 11.4857 9.99219 11.2305 9.99219C10.7695 9.99219 10.3568 10.1081 9.99219 10.3398C9.63021 10.5716 9.34375 10.9115 9.13281 11.3594C8.92448 11.8073 8.82031 12.3542 8.82031 13C8.82031 13.651 8.92448 14.2005 9.13281 14.6484C9.34375 15.0964 9.63151 15.4349 9.99609 15.6641C10.3607 15.8932 10.7708 16.0078 11.2266 16.0078C11.4792 16.0078 11.7188 15.974 11.9453 15.9062C12.1745 15.8359 12.3815 15.7331 12.5664 15.5977C12.7513 15.4622 12.9076 15.2969 13.0352 15.1016C13.1654 14.9036 13.2552 14.6771 13.3047 14.4219L14.5234 14.4258C14.4583 14.819 14.332 15.181 14.1445 15.5117C13.9596 15.8398 13.7214 16.1237 13.4297 16.3633C13.1406 16.6003 12.8099 16.7839 12.4375 16.9141C12.0651 17.0443 11.6589 17.1094 11.2188 17.1094C10.526 17.1094 9.90885 16.9453 9.36719 16.6172C8.82552 16.2865 8.39844 15.8138 8.08594 15.1992C7.77604 14.5846 7.62109 13.8516 7.62109 13C7.62109 12.1458 7.77734 11.4128 8.08984 10.8008C8.40234 10.1862 8.82943 9.71484 9.37109 9.38672C9.91276 9.05599 10.5286 8.89062 11.2188 8.89062C11.6432 8.89062 12.0391 8.95182 12.4063 9.07422C12.776 9.19401 13.1081 9.37109 13.4023 9.60547C13.6966 9.83724 13.9401 10.1211 14.1328 10.457C14.3255 10.7904 14.4557 11.1719 14.5234 11.6016ZM16.5898 17H15.3086L18.1875 9H19.582L22.4609 17H21.1797L18.918 10.4531H18.8555L16.5898 17ZM16.8047 13.8672H20.9609V14.8828H16.8047V13.8672ZM30.0732 9V17H28.9639L24.8975 11.1328H24.8232V17H23.6162V9H24.7334L28.8037 14.875H28.8779V9H30.0732ZM38.4785 11.6016H37.2598C37.2129 11.3411 37.1257 11.112 36.998 10.9141C36.8704 10.7161 36.7142 10.5482 36.5293 10.4102C36.3444 10.2721 36.1374 10.168 35.9082 10.0977C35.6816 10.0273 35.4408 9.99219 35.1855 9.99219C34.7246 9.99219 34.3118 10.1081 33.9473 10.3398C33.5853 10.5716 33.2988 10.9115 33.0879 11.3594C32.8796 11.8073 32.7754 12.3542 32.7754 13C32.7754 13.651 32.8796 14.2005 33.0879 14.6484C33.2988 15.0964 33.5866 15.4349 33.9512 15.6641C34.3158 15.8932 34.7259 16.0078 35.1816 16.0078C35.4342 16.0078 35.6738 15.974 35.9004 15.9062C36.1296 15.8359 36.3366 15.7331 36.5215 15.5977C36.7064 15.4622 36.8626 15.2969 36.9902 15.1016C37.1204 14.9036 37.2103 14.6771 37.2598 14.4219L38.4785 14.4258C38.4134 14.819 38.2871 15.181 38.0996 15.5117C37.9147 15.8398 37.6764 16.1237 37.3848 16.3633C37.0957 16.6003 36.765 16.7839 36.3926 16.9141C36.0202 17.0443 35.6139 17.1094 35.1738 17.1094C34.4811 17.1094 33.8639 16.9453 33.3223 16.6172C32.7806 16.2865 32.3535 15.8138 32.041 15.1992C31.7311 14.5846 31.5762 13.8516 31.5762 13C31.5762 12.1458 31.7324 11.4128 32.0449 10.8008C32.3574 10.1862 32.7845 9.71484 33.3262 9.38672C33.8678 9.05599 34.4837 8.89062 35.1738 8.89062C35.5983 8.89062 35.9941 8.95182 36.3613 9.07422C36.7311 9.19401 37.0632 9.37109 37.3574 9.60547C37.6517 9.83724 37.8952 10.1211 38.0879 10.457C38.2806 10.7904 38.4108 11.1719 38.4785 11.6016ZM39.9229 17V9H44.9385V10.0391H41.1299V12.4766H44.6768V13.5117H41.1299V15.9609H44.9854V17H39.9229ZM46.5508 17V9H47.7578V15.9609H51.3828V17H46.5508ZM52.7598 17V9H57.7754V10.0391H53.9668V12.4766H57.5137V13.5117H53.9668V15.9609H57.8223V17H52.7598ZM61.9775 17H59.3877V9H62.0596C62.8434 9 63.5166 9.16016 64.0791 9.48047C64.6416 9.79818 65.0726 10.2552 65.3721 10.8516C65.6742 11.4453 65.8252 12.1576 65.8252 12.9883C65.8252 13.8216 65.6729 14.5378 65.3682 15.1367C65.0661 15.7357 64.6286 16.1966 64.0557 16.5195C63.4827 16.8398 62.79 17 61.9775 17ZM60.5947 15.9453H61.9111C62.5205 15.9453 63.027 15.8307 63.4307 15.6016C63.8343 15.3698 64.1364 15.0352 64.3369 14.5977C64.5374 14.1576 64.6377 13.6211 64.6377 12.9883C64.6377 12.3607 64.5374 11.8281 64.3369 11.3906C64.139 10.9531 63.8434 10.6211 63.4502 10.3945C63.057 10.168 62.5687 10.0547 61.9854 10.0547H60.5947V15.9453Z" fill="#58536E"/>
</svg>
