
<svg width="74" height="25" viewBox="0 0 74 25" fill="none" xmlns="http://www.w3.org/2000/svg">
<rect x="0.5" y="0.5" width="73" height="24" rx="4.5" fill="#E3FAD6"/>
<rect x="0.5" y="0.5" width="73" height="24" rx="4.5" stroke="white"/>
<path d="M10.4687 17H7.87891V9H10.5508C11.3346 9 12.0078 9.16016 12.5703 9.48047C13.1328 9.79818 13.5638 10.2552 13.8633 10.8516C14.1654 11.4453 14.3164 12.1576 14.3164 12.9883C14.3164 13.8216 14.1641 14.5378 13.8594 15.1367C13.5573 15.7357 13.1198 16.1966 12.5469 16.5195C11.974 16.8398 11.2813 17 10.4687 17ZM9.08594 15.9453H10.4023C11.0117 15.9453 11.5182 15.8307 11.9219 15.6016C12.3255 15.3698 12.6276 15.0352 12.8281 14.5977C13.0286 14.1576 13.1289 13.6211 13.1289 12.9883C13.1289 12.3607 13.0286 11.8281 12.8281 11.3906C12.6302 10.9531 12.3346 10.6211 11.9414 10.3945C11.5482 10.168 11.0599 10.0547 10.4766 10.0547H9.08594V15.9453ZM15.8174 17V9H20.833V10.0391H17.0244V12.4766H20.5713V13.5117H17.0244V15.9609H20.8799V17H15.8174ZM22.4453 17V9H23.6523V15.9609H27.2773V17H22.4453ZM29.8613 9V17H28.6543V9H29.8613ZM32.3184 9L34.5449 15.5156H34.6348L36.8613 9H38.166L35.2871 17H33.8926L31.0137 9H32.3184ZM39.3213 17V9H44.3369V10.0391H40.5283V12.4766H44.0752V13.5117H40.5283V15.9609H44.3838V17H39.3213ZM45.9492 17V9H48.8008C49.4206 9 49.9349 9.10677 50.3438 9.32031C50.7552 9.53385 51.0625 9.82943 51.2656 10.207C51.4688 10.582 51.5703 11.0156 51.5703 11.5078C51.5703 11.9974 51.4674 12.4284 51.2617 12.8008C51.0586 13.1706 50.7513 13.4583 50.3398 13.6641C49.931 13.8698 49.4167 13.9727 48.7969 13.9727H46.6367V12.9336H48.6875C49.0781 12.9336 49.3958 12.8776 49.6406 12.7656C49.888 12.6536 50.069 12.4909 50.1836 12.2773C50.2982 12.0638 50.3555 11.8073 50.3555 11.5078C50.3555 11.2057 50.2969 10.944 50.1797 10.7227C50.0651 10.5013 49.8841 10.332 49.6367 10.2148C49.3919 10.0951 49.0703 10.0352 48.6719 10.0352H47.1563V17H45.9492ZM49.8984 13.3906L51.875 17H50.5L48.5625 13.3906H49.8984ZM53.0391 17V9H58.0547V10.0391H54.2461V12.4766H57.793V13.5117H54.2461V15.9609H58.1016V17H53.0391ZM62.2568 17H59.667V9H62.3389C63.1227 9 63.7959 9.16016 64.3584 9.48047C64.9209 9.79818 65.3519 10.2552 65.6514 10.8516C65.9535 11.4453 66.1045 12.1576 66.1045 12.9883C66.1045 13.8216 65.9521 14.5378 65.6475 15.1367C65.3454 15.7357 64.9079 16.1966 64.335 16.5195C63.762 16.8398 63.0693 17 62.2568 17ZM60.874 15.9453H62.1904C62.7998 15.9453 63.3063 15.8307 63.71 15.6016C64.1136 15.3698 64.4157 15.0352 64.6162 14.5977C64.8167 14.1576 64.917 13.6211 64.917 12.9883C64.917 12.3607 64.8167 11.8281 64.6162 11.3906C64.4183 10.9531 64.1227 10.6211 63.7295 10.3945C63.3363 10.168 62.848 10.0547 62.2646 10.0547H60.874V15.9453Z" fill="#208D28"/>
</svg>
