
<svg width="51" height="25" viewBox="0 0 51 25" fill="none" xmlns="http://www.w3.org/2000/svg">
<rect x="0.5" y="0.5" width="50" height="24" rx="4.5" fill="#FEE3D4"/>
<rect x="0.5" y="0.5" width="50" height="24" rx="4.5" stroke="white"/>
<path d="M7.87891 17V9H12.8945V10.0391H9.08594V12.4766H12.6328V13.5117H9.08594V15.9609H12.9414V17H7.87891ZM14.5068 17V9H17.3584C17.9782 9 18.4925 9.10677 18.9014 9.32031C19.3128 9.53385 19.6201 9.82943 19.8232 10.207C20.0264 10.582 20.1279 11.0156 20.1279 11.5078C20.1279 11.9974 20.0251 12.4284 19.8193 12.8008C19.6162 13.1706 19.3089 13.4583 18.8975 13.6641C18.4886 13.8698 17.9743 13.9727 17.3545 13.9727H15.1943V12.9336H17.2451C17.6357 12.9336 17.9535 12.8776 18.1982 12.7656C18.4456 12.6536 18.6266 12.4909 18.7412 12.2773C18.8558 12.0638 18.9131 11.8073 18.9131 11.5078C18.9131 11.2057 18.8545 10.944 18.7373 10.7227C18.6227 10.5013 18.4417 10.332 18.1943 10.2148C17.9495 10.0951 17.6279 10.0352 17.2295 10.0352H15.7139V17H14.5068ZM18.4561 13.3906L20.4326 17H19.0576L17.1201 13.3906H18.4561ZM21.5967 17V9H24.4482C25.068 9 25.5824 9.10677 25.9912 9.32031C26.4027 9.53385 26.71 9.82943 26.9131 10.207C27.1162 10.582 27.2178 11.0156 27.2178 11.5078C27.2178 11.9974 27.1149 12.4284 26.9092 12.8008C26.7061 13.1706 26.3988 13.4583 25.9873 13.6641C25.5785 13.8698 25.0641 13.9727 24.4443 13.9727H22.2842V12.9336H24.335C24.7256 12.9336 25.0433 12.8776 25.2881 12.7656C25.5355 12.6536 25.7165 12.4909 25.8311 12.2773C25.9456 12.0638 26.0029 11.8073 26.0029 11.5078C26.0029 11.2057 25.9443 10.944 25.8271 10.7227C25.7126 10.5013 25.5316 10.332 25.2842 10.2148C25.0394 10.0951 24.7178 10.0352 24.3193 10.0352H22.8037V17H21.5967ZM25.5459 13.3906L27.5225 17H26.1475L24.21 13.3906H25.5459ZM35.6357 13C35.6357 13.8542 35.4795 14.5885 35.167 15.2031C34.8545 15.8151 34.4261 16.2865 33.8818 16.6172C33.3402 16.9453 32.7243 17.1094 32.0342 17.1094C31.3415 17.1094 30.723 16.9453 30.1787 16.6172C29.637 16.2865 29.21 15.8138 28.8975 15.1992C28.585 14.5846 28.4287 13.8516 28.4287 13C28.4287 12.1458 28.585 11.4128 28.8975 10.8008C29.21 10.1862 29.637 9.71484 30.1787 9.38672C30.723 9.05599 31.3415 8.89062 32.0342 8.89062C32.7243 8.89062 33.3402 9.05599 33.8818 9.38672C34.4261 9.71484 34.8545 10.1862 35.167 10.8008C35.4795 11.4128 35.6357 12.1458 35.6357 13ZM34.4404 13C34.4404 12.349 34.335 11.8008 34.124 11.3555C33.9157 10.9076 33.6292 10.569 33.2646 10.3398C32.9027 10.1081 32.4925 9.99219 32.0342 9.99219C31.5732 9.99219 31.1618 10.1081 30.7998 10.3398C30.4378 10.569 30.1514 10.9076 29.9404 11.3555C29.7321 11.8008 29.6279 12.349 29.6279 13C29.6279 13.651 29.7321 14.2005 29.9404 14.6484C30.1514 15.0937 30.4378 15.4323 30.7998 15.6641C31.1618 15.8932 31.5732 16.0078 32.0342 16.0078C32.4925 16.0078 32.9027 15.8932 33.2646 15.6641C33.6292 15.4323 33.9157 15.0937 34.124 14.6484C34.335 14.2005 34.4404 13.651 34.4404 13ZM37.1406 17V9H39.9922C40.612 9 41.1263 9.10677 41.5352 9.32031C41.9466 9.53385 42.2539 9.82943 42.457 10.207C42.6602 10.582 42.7617 11.0156 42.7617 11.5078C42.7617 11.9974 42.6589 12.4284 42.4531 12.8008C42.25 13.1706 41.9427 13.4583 41.5313 13.6641C41.1224 13.8698 40.6081 13.9727 39.9883 13.9727H37.8281V12.9336H39.8789C40.2695 12.9336 40.5872 12.8776 40.832 12.7656C41.0794 12.6536 41.2604 12.4909 41.375 12.2773C41.4896 12.0638 41.5469 11.8073 41.5469 11.5078C41.5469 11.2057 41.4883 10.944 41.3711 10.7227C41.2565 10.5013 41.0755 10.332 40.8281 10.2148C40.5833 10.0951 40.2617 10.0352 39.8633 10.0352H38.3477V17H37.1406ZM41.0898 13.3906L43.0664 17H41.6914L39.7539 13.3906H41.0898Z" fill="#D12030"/>
</svg>
