
<svg width="93" height="16" viewBox="0 0 93 16" fill="none" xmlns="http://www.w3.org/2000/svg">
<path d="M16.4094 0C16.4094 1.47157 15.812 2.80459 14.8461 3.77066C13.9022 4.71426 12.6027 5.30962 11.1663 5.33208H0.358887L5.71643 0H16.4094Z" fill="#2F50C1"/>
<path d="M16.4253 10.6267L11.0264 16H0.60035V15.9887L0.597168 15.9869V15.9682C0.597168 15.7828 0.638544 14.4872 1.41701 13.2441C1.81411 12.6113 2.39244 11.9916 3.26321 11.5123C4.06078 11.0742 5.74259 10.666 7.12729 10.6735L7.0861 12.4428L9.17681 10.4451L7.17821 8.35383L7.17185 8.64028L7.13684 10.1437C6.70061 10.1287 6.02923 10.1362 5.26518 10.2859L0.832318 5.86938H11.6461L16.4253 10.6267Z" fill="#2F50C1"/>
<path d="M27.3018 6.86953H28.6642C29.9948 6.86953 30.9768 7.14842 31.61 7.70367C32.2429 8.25891 32.5597 9.04322 32.5597 10.0566C32.5597 11.07 32.2292 11.8468 31.5687 12.3821C30.9079 12.92 29.9398 13.1889 28.6642 13.1889H23.7091C23.498 13.1889 23.3971 13.0818 23.4063 12.8726V11.2468C23.4063 11.0376 23.5072 10.9306 23.7091 10.9306H28.6642C29.4809 10.9306 29.8893 10.6417 29.8893 10.0641C29.8893 9.43912 29.4809 9.12788 28.6642 9.12788H27.3018C25.9709 9.12788 24.9892 8.85151 24.356 8.29377C23.7228 7.73853 23.4063 6.95419 23.4063 5.94081C23.4063 4.92743 23.7365 4.15308 24.3973 3.61526C25.0581 3.07745 26.0259 2.81104 27.3018 2.81104H31.9678C32.1787 2.81104 32.2843 2.91562 32.2843 3.12726V4.76559C32.2843 4.97474 32.1787 5.07682 31.9678 5.06686H27.3018C26.4848 5.06686 26.0765 5.36067 26.0765 5.94829C26.0765 6.56329 26.4848 6.86953 27.3018 6.86953Z" fill="#2F50C1"/>
<path d="M41.2587 2.81104H43.1856C43.3968 2.81104 43.4974 2.91562 43.4887 3.12726V12.8726C43.4887 13.0818 43.3876 13.1889 43.1856 13.1889H41.2587C41.0473 13.1889 40.9465 13.0818 40.9559 12.8726V9.12788H37.0055V12.8726C37.0055 13.0818 36.9044 13.1889 36.7027 13.1889H34.7755C34.5644 13.1889 34.4636 13.0818 34.473 12.8726V3.12726C34.473 2.91562 34.5739 2.81104 34.7755 2.81104H36.7027C36.9136 2.81104 37.0144 2.91562 37.0055 3.12726V6.86953H40.9559V3.12726C40.9465 2.91562 41.0473 2.81104 41.2587 2.81104Z" fill="#2F50C1"/>
<path d="M45.8971 2.81104H47.8243C48.0352 2.81104 48.136 2.91562 48.127 3.12726V12.8726C48.127 13.0818 48.026 13.1889 47.8243 13.1889H45.8971C45.686 13.1889 45.5851 13.0818 45.5943 12.8726V3.12726C45.5851 2.91562 45.686 2.81104 45.8971 2.81104Z" fill="#2F50C1"/>
<path d="M52.7655 5.06686V7.8605H55.9037C56.6288 7.8605 56.9913 7.3949 56.9913 6.46368C56.9913 5.53246 56.6288 5.06686 55.9037 5.06686H52.7655ZM59.5375 6.56079C59.5375 7.52936 59.2302 8.36348 58.6155 9.06563C58.0007 9.76778 57.0966 10.1188 55.9037 10.1188H52.7655V12.8726C52.7655 13.0818 52.6646 13.1889 52.4627 13.1889H50.5358C50.3246 13.1889 50.2238 13.0818 50.233 12.8726V3.12726C50.233 2.91562 50.3338 2.81104 50.5358 2.81104H55.9037C57.06 2.81104 57.9549 3.19198 58.5881 3.95887C59.221 4.72575 59.5375 5.59222 59.5375 6.56079Z" fill="#2F50C1"/>
<path d="M63.8734 5.06686V7.8605H67.0119C67.7367 7.8605 68.0992 7.3949 68.0992 6.46368C68.0992 5.53246 67.7367 5.06686 67.0119 5.06686H63.8734ZM70.6454 6.56079C70.6454 7.52936 70.3381 8.36348 69.7231 9.06563C69.1086 9.76778 68.2045 10.1188 67.0119 10.1188H63.8734V12.8726C63.8734 13.0818 63.7723 13.1889 63.5706 13.1889H61.6437C61.4325 13.1889 61.3317 13.0818 61.3409 12.8726V3.12726C61.3409 2.91562 61.442 2.81104 61.6437 2.81104H67.0119C68.1679 2.81104 69.0628 3.19198 69.696 3.95887C70.3289 4.72575 70.6454 5.59222 70.6454 6.56079Z" fill="#2F50C1"/>
<path d="M74.9815 9.12788V10.9306H80.9827C81.1938 10.9306 81.2994 11.0376 81.2994 11.2468V12.8726C81.2994 13.0818 81.1938 13.1889 80.9827 13.1889H72.7513C72.5405 13.1889 72.4396 13.0818 72.4488 12.8726V3.12726C72.4488 2.91562 72.5497 2.81104 72.7513 2.81104H80.845C81.0559 2.81104 81.1617 2.91562 81.1617 3.12726V4.76559C81.1617 4.97474 81.0559 5.07682 80.845 5.06686H74.9815V6.86953H80.4182C80.6293 6.86953 80.7349 6.9766 80.7349 7.18825V8.82412C80.7349 9.03576 80.6293 9.13784 80.4182 9.12788H74.9815Z" fill="#2F50C1"/>
<path d="M90.3841 7.95761C90.7324 8.0597 91.0399 8.19665 91.3061 8.37094C92.187 8.89382 92.6319 10.2832 92.6411 12.5415V12.8726C92.6319 13.0818 92.5261 13.1889 92.3247 13.1889H90.4115C90.2003 13.1789 90.095 13.0743 90.095 12.8726V12.5415C90.095 11.0725 89.8699 10.1363 89.4205 9.7329C89.035 9.38432 88.5119 9.18762 87.8511 9.1428C87.1816 9.18762 86.6537 9.38432 86.2683 9.7329C85.8186 10.1363 85.594 11.0725 85.594 12.5415V12.8726C85.594 13.0743 85.4882 13.1789 85.2773 13.1889H83.3641C83.1621 13.1889 83.0563 13.0818 83.0476 12.8726V12.5415C83.0476 10.2832 83.4923 8.89382 84.3824 8.37094C84.6581 8.20661 84.9651 8.06717 85.3047 7.95761C83.9925 7.23305 83.3364 5.73166 83.3364 3.45591V3.12726C83.3364 2.91562 83.4373 2.81104 83.6395 2.81104H85.5661C85.7773 2.81104 85.8781 2.91562 85.8691 3.12726V3.45591C85.8691 5.01707 86.0158 5.96323 86.3096 6.29937C86.6032 6.63301 87.1171 6.81975 87.8511 6.8571C88.5851 6.81975 89.097 6.63301 89.3861 6.29937C89.6749 5.96323 89.8196 5.01707 89.8196 3.45591V3.12726C89.8196 2.91562 89.9207 2.81104 90.1221 2.81104H92.0493C92.2602 2.81104 92.361 2.91562 92.3521 3.12726V3.45591C92.3521 5.73166 91.6957 7.23305 90.3841 7.95761Z" fill="#2F50C1"/>
</svg>
