
<svg width="65" height="25" viewBox="0 0 65 25" fill="none" xmlns="http://www.w3.org/2000/svg">
<rect x="0.5" y="0.5" width="64" height="24" rx="4.5" fill="#FFF3D5"/>
<rect x="0.5" y="0.5" width="64" height="24" rx="4.5" stroke="white"/>
<path d="M14.8281 13C14.8281 13.8542 14.6719 14.5885 14.3594 15.2031C14.0469 15.8151 13.6185 16.2865 13.0742 16.6172C12.5326 16.9453 11.9167 17.1094 11.2266 17.1094C10.5339 17.1094 9.91536 16.9453 9.37109 16.6172C8.82943 16.2865 8.40234 15.8138 8.08984 15.1992C7.77734 14.5846 7.62109 13.8516 7.62109 13C7.62109 12.1458 7.77734 11.4128 8.08984 10.8008C8.40234 10.1862 8.82943 9.71484 9.37109 9.38672C9.91536 9.05599 10.5339 8.89062 11.2266 8.89062C11.9167 8.89062 12.5326 9.05599 13.0742 9.38672C13.6185 9.71484 14.0469 10.1862 14.3594 10.8008C14.6719 11.4128 14.8281 12.1458 14.8281 13ZM13.6328 13C13.6328 12.349 13.5273 11.8008 13.3164 11.3555C13.1081 10.9076 12.8216 10.569 12.457 10.3398C12.0951 10.1081 11.6849 9.99219 11.2266 9.99219C10.7656 9.99219 10.3542 10.1081 9.99219 10.3398C9.63021 10.569 9.34375 10.9076 9.13281 11.3555C8.92448 11.8008 8.82031 12.349 8.82031 13C8.82031 13.651 8.92448 14.2005 9.13281 14.6484C9.34375 15.0937 9.63021 15.4323 9.99219 15.6641C10.3542 15.8932 10.7656 16.0078 11.2266 16.0078C11.6849 16.0078 12.0951 15.8932 12.457 15.6641C12.8216 15.4323 13.1081 15.0937 13.3164 14.6484C13.5273 14.2005 13.6328 13.651 13.6328 13ZM22.79 9V17H21.6807L17.6143 11.1328H17.54V17H16.333V9H17.4502L21.5205 14.875H21.5947V9H22.79ZM27.4619 17V9H28.6689V12.4766H32.6572V9H33.8682V17H32.6572V13.5117H28.6689V17H27.4619ZM42.5752 13C42.5752 13.8542 42.4189 14.5885 42.1064 15.2031C41.7939 15.8151 41.3656 16.2865 40.8213 16.6172C40.2796 16.9453 39.6637 17.1094 38.9736 17.1094C38.2809 17.1094 37.6624 16.9453 37.1182 16.6172C36.5765 16.2865 36.1494 15.8138 35.8369 15.1992C35.5244 14.5846 35.3682 13.8516 35.3682 13C35.3682 12.1458 35.5244 11.4128 35.8369 10.8008C36.1494 10.1862 36.5765 9.71484 37.1182 9.38672C37.6624 9.05599 38.2809 8.89062 38.9736 8.89062C39.6637 8.89062 40.2796 9.05599 40.8213 9.38672C41.3656 9.71484 41.7939 10.1862 42.1064 10.8008C42.4189 11.4128 42.5752 12.1458 42.5752 13ZM41.3799 13C41.3799 12.349 41.2744 11.8008 41.0635 11.3555C40.8551 10.9076 40.5687 10.569 40.2041 10.3398C39.8421 10.1081 39.432 9.99219 38.9736 9.99219C38.5127 9.99219 38.1012 10.1081 37.7393 10.3398C37.3773 10.569 37.0908 10.9076 36.8799 11.3555C36.6715 11.8008 36.5674 12.349 36.5674 13C36.5674 13.651 36.6715 14.2005 36.8799 14.6484C37.0908 15.0937 37.3773 15.4323 37.7393 15.6641C38.1012 15.8932 38.5127 16.0078 38.9736 16.0078C39.432 16.0078 39.8421 15.8932 40.2041 15.6641C40.5687 15.4323 40.8551 15.0937 41.0635 14.6484C41.2744 14.2005 41.3799 13.651 41.3799 13ZM44.0801 17V9H45.2871V15.9609H48.9121V17H44.0801ZM52.8789 17H50.2891V9H52.9609C53.7448 9 54.418 9.16016 54.9805 9.48047C55.543 9.79818 55.974 10.2552 56.2734 10.8516C56.5755 11.4453 56.7266 12.1576 56.7266 12.9883C56.7266 13.8216 56.5742 14.5378 56.2695 15.1367C55.9674 15.7357 55.5299 16.1966 54.957 16.5195C54.3841 16.8398 53.6914 17 52.8789 17ZM51.4961 15.9453H52.8125C53.4219 15.9453 53.9284 15.8307 54.332 15.6016C54.7357 15.3698 55.0378 15.0352 55.2383 14.5977C55.4388 14.1576 55.5391 13.6211 55.5391 12.9883C55.5391 12.3607 55.4388 11.8281 55.2383 11.3906C55.0404 10.9531 54.7448 10.6211 54.3516 10.3945C53.9583 10.168 53.4701 10.0547 52.8867 10.0547H51.4961V15.9453Z" fill="#DB7E21"/>
</svg>
