
<svg width="72" height="52" viewBox="0 0 72 52" fill="none" xmlns="http://www.w3.org/2000/svg">
<g clip-path="url(#clip0_1_446)">
<path d="M35.9898 4C39.4479 4 42.5602 5.40358 44.8181 7.66151C47.0761 9.91945 48.4797 13.0521 48.4797 16.4898C48.4797 19.9479 47.0761 23.0602 44.8181 25.3181C42.5602 27.5761 39.4276 28.9797 35.9898 28.9797C32.5521 28.9797 29.4194 27.5761 27.1615 25.3181C24.9036 23.0806 23.5 19.9479 23.5 16.4898C23.5 13.0317 24.9036 9.91945 27.1615 7.66151C29.4194 5.40358 32.5521 4 35.9898 4ZM31.9011 15.0456C31.6774 15.0456 31.4943 15.1066 31.3926 15.188C31.3316 15.2286 31.2705 15.2897 31.2502 15.3507C31.2095 15.4321 31.1892 15.5134 31.2095 15.6355C31.2095 15.9406 31.3723 16.3474 31.6977 16.8153L32.7148 18.4426C33.1216 19.0936 33.5488 19.7648 34.098 20.2531C34.6066 20.7209 35.2372 21.0464 36.0509 21.0464C36.9459 21.0464 37.5968 20.7209 38.1257 20.2124C38.6749 19.7038 39.1225 18.9919 39.5496 18.2799L40.7091 16.3881C40.9329 15.8999 40.9939 15.5745 40.9532 15.371C40.9329 15.249 40.7905 15.2083 40.5871 15.188C40.5464 15.188 40.4854 15.188 40.4447 15.188C40.3836 15.188 40.343 15.188 40.2819 15.188C40.2413 15.188 40.2209 15.188 40.2006 15.188C40.0989 15.188 39.9972 15.188 39.8751 15.1676L40.2616 13.4182C37.3324 13.8861 35.1355 11.7095 32.0435 12.991L32.2469 15.0659C32.1249 15.0659 32.0028 15.0659 31.9011 15.0456ZM27.3242 23.467C28.7685 22.9585 31.3112 22.6941 32.491 21.9007C32.6945 21.6363 32.9182 21.3108 33.1216 21.026C33.2437 20.843 33.3454 20.6802 33.4471 20.5582C33.4675 20.5378 33.4878 20.5175 33.5081 20.4972C33.0199 19.9886 32.6131 19.3784 32.2266 18.7681L31.2095 17.1408C30.823 16.5712 30.6196 16.0627 30.6196 15.6558C30.6196 15.4524 30.64 15.2693 30.7213 15.1269C30.8027 14.9642 30.9247 14.8218 31.0671 14.7201C31.1485 14.6794 31.2299 14.6184 31.3112 14.598C31.2502 13.7234 31.2299 12.6046 31.2705 11.6688C31.2909 11.4451 31.3316 11.2213 31.3926 10.9976C31.657 10.0618 32.308 9.30919 33.1216 8.80065C33.4064 8.61758 33.7116 8.47518 34.0574 8.35313C34.6473 8.12937 34.3625 7.23434 35.0134 7.21399C36.5391 7.17331 39.0411 8.47518 40.0175 9.53295C40.5871 10.1432 40.9532 10.9569 41.0142 12.035L40.9532 14.6998C41.238 14.7811 41.4211 14.9642 41.5024 15.249C41.5838 15.5745 41.5024 16.022 41.2177 16.6526C41.2177 16.6729 41.1973 16.6729 41.1973 16.6932L40.0378 18.6054C39.5903 19.3377 39.1225 20.0903 38.5122 20.6599L38.4919 20.6802C38.5732 20.7819 38.6546 20.904 38.736 21.026C38.8987 21.2498 39.0614 21.5142 39.2445 21.7583C40.3226 22.6737 43.1705 22.9585 44.6758 23.5077C46.2217 21.5956 47.1371 19.1546 47.1371 16.5102C47.1371 13.4386 45.8963 10.6517 43.8824 8.63792C41.8686 6.62408 39.0818 5.38324 36.0102 5.38324C32.9386 5.38324 30.1517 6.62408 28.1379 8.63792C26.1241 10.6517 24.8832 13.4386 24.8832 16.5102C24.8629 19.1343 25.7783 21.5549 27.3242 23.467ZM39.1631 22.4093C38.8784 22.0838 38.5936 21.6566 38.3291 21.2905C38.2478 21.1888 38.1867 21.0667 38.1054 20.9854C37.5561 21.3922 36.8849 21.6566 36.0102 21.6566C35.0948 21.6566 34.3828 21.3312 33.7929 20.8226C33.7929 20.8226 33.7929 20.843 33.7726 20.843C33.6709 20.9854 33.5692 21.1277 33.4471 21.3108C33.2234 21.6363 32.9793 21.9821 32.7555 22.2872C32.7758 24.3417 37.963 25.5622 39.1631 22.4093Z" fill="white"/>
<path d="M27.3242 23.467C28.7685 22.9585 31.3112 22.6941 32.491 21.9007C32.6945 21.6363 32.9182 21.3108 33.1216 21.026C33.2437 20.843 33.3454 20.6802 33.4471 20.5582L33.5081 20.4972C33.0199 19.9886 32.6131 19.3784 32.2266 18.7681L31.2095 17.1408C30.823 16.5712 30.6196 16.0627 30.6196 15.6558C30.6196 15.4524 30.64 15.2693 30.7213 15.1269C30.8027 14.9642 30.9247 14.8218 31.0671 14.7201C31.1485 14.6794 31.2299 14.6184 31.3112 14.598C31.2502 13.7234 31.2299 12.6046 31.2705 11.6688C31.2909 11.4451 31.3316 11.2213 31.3926 10.9976C31.657 10.0618 32.308 9.30919 33.1216 8.80065C33.4064 8.61758 33.7116 8.47518 34.0574 8.35313C34.6473 8.12937 34.3625 7.23434 35.0134 7.21399C36.5391 7.17331 39.0411 8.47518 40.0175 9.53295C40.5871 10.1432 40.9532 10.9569 41.0142 12.035L40.9532 14.6998C41.238 14.7811 41.4211 14.9642 41.5024 15.249C41.5838 15.5745 41.5024 16.022 41.2177 16.6526C41.2177 16.6729 41.1973 16.6729 41.1973 16.6932L40.0378 18.6054C39.5903 19.3377 39.1225 20.0903 38.5122 20.6599L38.4919 20.6802C38.5732 20.7819 38.6546 20.904 38.736 21.026C38.8987 21.2498 39.0614 21.5142 39.2445 21.7583C40.3226 22.6737 43.1705 22.9585 44.6758 23.5077C46.2217 21.5956 47.1371 19.1546 47.1371 16.5102C47.1371 13.4386 45.8963 10.6517 43.8824 8.63792C41.8686 6.62408 39.0818 5.38324 36.0102 5.38324C32.9386 5.38324 30.1517 6.62408 28.1379 8.63792C26.1241 10.6517 24.8832 13.4386 24.8832 16.5102C24.8629 19.1343 25.7783 21.5549 27.3242 23.467Z" fill="#2F50C1"/>
<path d="M27.5151 24.9646L27.5135 24.963C25.3474 22.8164 24 19.8105 24 16.4898C24 13.1704 25.3465 10.1836 27.5151 8.01507C29.6833 5.84685 32.6903 4.5 35.9898 4.5C39.3093 4.5 42.2961 5.84653 44.4646 8.01507C46.6328 10.1833 47.9797 13.1903 47.9797 16.4898C47.9797 19.8093 46.6331 22.7961 44.4646 24.9646C42.2964 27.1328 39.2893 28.4797 35.9898 28.4797C32.6903 28.4797 29.6833 27.1328 27.5151 24.9646ZM31.8521 12.5292L31.7497 12.5716C31.7513 12.2732 31.7577 11.9796 31.7695 11.7027C31.7874 11.5135 31.8222 11.3231 31.8744 11.1313C32.0989 10.3392 32.6567 9.68085 33.3866 9.22465L33.3867 9.22468L33.392 9.22124C33.638 9.06308 33.9068 8.93649 34.2238 8.82463L34.2238 8.82476L34.2347 8.82063C34.7503 8.62505 34.9027 8.13514 34.9715 7.91399C34.9773 7.89528 34.9825 7.87849 34.9873 7.86397C35.0077 7.80224 35.0227 7.76037 35.0374 7.72723C35.0397 7.72207 35.0418 7.71749 35.0438 7.71343C35.6863 7.7015 36.5985 7.975 37.5042 8.4119C38.4117 8.84965 39.2204 9.40658 39.6501 9.8721L39.652 9.87411C40.132 10.3885 40.4557 11.0826 40.5139 12.0439L40.4949 12.8746L40.1827 12.9245C39.0211 13.11 37.9952 12.8437 36.8604 12.5491C36.688 12.5044 36.5131 12.459 36.3349 12.4144C35.0055 12.0821 33.5512 11.8249 31.8521 12.5292ZM31.8042 19.0356C32.1178 19.5307 32.4591 20.0497 32.8568 20.5202C32.8267 20.5651 32.7971 20.61 32.7685 20.6535C32.7485 20.6839 32.729 20.7136 32.71 20.7421C32.653 20.8219 32.596 20.9027 32.5393 20.983C32.4052 21.1728 32.2726 21.3605 32.146 21.5285C31.637 21.8452 30.8257 22.0823 29.8913 22.3042C29.6574 22.3598 29.4158 22.4143 29.1731 22.4691C28.5919 22.6003 28.0046 22.733 27.5027 22.8838C26.1539 21.102 25.3648 18.8957 25.3832 16.514H25.3832V16.5102C25.3832 13.5758 26.5681 10.9148 28.4915 8.99147C30.4148 7.0681 33.0758 5.88324 36.0102 5.88324C38.9446 5.88324 41.6055 7.0681 43.5289 8.99147C45.4522 10.9148 46.6371 13.5758 46.6371 16.5102C46.6371 18.9139 45.8461 21.1396 44.4993 22.9218C43.9889 22.7643 43.3801 22.6246 42.7758 22.4859C42.4854 22.4192 42.1961 22.3528 41.9192 22.2848C41.4077 22.1591 40.9254 22.0259 40.5102 21.8718C40.1166 21.7258 39.814 21.572 39.6094 21.4109C39.5386 21.3141 39.4693 21.2122 39.3973 21.1053C39.3884 21.0919 39.3793 21.0785 39.3702 21.0649C39.2985 20.9584 39.2227 20.8457 39.1465 20.7404L39.146 20.7398C39.1448 20.7378 39.1435 20.7359 39.1422 20.734C39.67 20.1609 40.0885 19.4813 40.4645 18.8661L40.4654 18.8646L41.6249 16.9525L41.6973 16.833V16.8047C41.9768 16.1716 42.1081 15.61 41.9875 15.1277L41.9855 15.1196L41.9832 15.1116C41.8933 14.7971 41.7139 14.5497 41.4606 14.3851L41.5141 12.0464L41.5146 12.0266L41.5134 12.0067C41.4464 10.8223 41.0392 9.89529 40.3839 9.19269C39.837 8.60077 38.9071 7.97837 37.9387 7.51121C36.9759 7.04678 35.8823 6.69065 35.0001 6.71417L34.9978 6.71424C34.6967 6.72365 34.455 6.84571 34.2858 7.05196C34.146 7.22245 34.0781 7.42803 34.0389 7.54694L34.0377 7.55059C33.9379 7.8529 33.9136 7.87263 33.8857 7.88351C33.5141 8.01499 33.1752 8.17217 32.854 8.37832C31.9584 8.9388 31.2159 9.78436 30.9114 10.8616L30.9114 10.8616L30.9102 10.866C30.8417 11.1171 30.7957 11.3697 30.7726 11.6236L30.7715 11.6353L30.771 11.6471C30.7344 12.4884 30.7461 13.4706 30.7919 14.3022L30.7765 14.3132C30.5703 14.4605 30.3972 14.6619 30.2799 14.8918C30.1366 15.1511 30.1196 15.4413 30.1196 15.6558C30.1196 16.2091 30.3864 16.8163 30.7904 17.4136L31.8026 19.0331L31.8026 19.0331L31.8042 19.0356ZM30.1223 23.2772C30.8668 23.1004 31.653 22.8902 32.2839 22.5891C32.3942 23.1903 32.8116 23.6788 33.3106 24.0266C33.8966 24.4352 34.6661 24.7059 35.4594 24.7977C37.0272 24.9793 38.9156 24.4651 39.6304 22.5871L39.631 22.5857C39.8015 22.6679 39.9804 22.7419 40.1624 22.8094C40.6314 22.9834 41.1573 23.1273 41.6806 23.2559C42.002 23.3349 42.3186 23.4075 42.6238 23.4776C43.3435 23.6427 43.9997 23.7933 44.5044 23.9774L44.84 24.0999L45.0646 23.8221C46.6809 21.823 47.6371 19.2716 47.6371 16.5102C47.6371 13.3014 46.3403 10.3887 44.236 8.28436C42.1317 6.18006 39.219 4.88324 36.0102 4.88324C32.8014 4.88324 29.8887 6.18006 27.7844 8.28436C25.6805 10.3882 24.3838 13.3002 24.3832 16.5082C24.3624 19.2527 25.3205 21.784 26.9354 23.7814L27.1574 24.0559L27.4903 23.9387C27.9955 23.7608 28.6376 23.6157 29.3382 23.4574C29.5931 23.3998 29.8557 23.3405 30.1223 23.2772Z" stroke="#2F50C1"/>
</g>
<path d="M19.9883 45V37.2495H22.9102C24.3657 37.2495 25.397 38.2539 25.397 39.7256V39.7363C25.397 41.208 24.3657 42.2339 22.9102 42.2339H20.9551V45H19.9883ZM22.6631 38.1089H20.9551V41.3745H22.6631C23.7695 41.3745 24.4087 40.7676 24.4087 39.7471V39.7363C24.4087 38.7158 23.7695 38.1089 22.6631 38.1089ZM26.9293 45V39.21H27.8639V40.0693H27.9498C28.17 39.4624 28.7125 39.1079 29.4967 39.1079C29.6739 39.1079 29.8726 39.1294 29.9639 39.1455V40.0532C29.7706 40.021 29.5933 39.9995 29.3892 39.9995C28.4976 39.9995 27.8639 40.5635 27.8639 41.4121V45H26.9293ZM33.403 45.1021C31.7541 45.1021 30.7336 43.9634 30.7336 42.1104V42.0996C30.7336 40.2412 31.7541 39.1079 33.403 39.1079C35.0519 39.1079 36.0724 40.2412 36.0724 42.0996V42.1104C36.0724 43.9634 35.0519 45.1021 33.403 45.1021ZM33.403 44.2749C34.4987 44.2749 35.1164 43.4746 35.1164 42.1104V42.0996C35.1164 40.73 34.4987 39.9351 33.403 39.9351C32.3073 39.9351 31.6896 40.73 31.6896 42.0996V42.1104C31.6896 43.4746 32.3073 44.2749 33.403 44.2749ZM37.9753 45V39.9834H37.0139V39.21H37.9753V38.5654C37.9753 37.4106 38.5554 36.8574 39.6565 36.8574C39.8821 36.8574 40.0862 36.8735 40.2795 36.9111V37.6577C40.1667 37.6362 40.011 37.6309 39.8445 37.6309C39.1785 37.6309 38.9099 37.9585 38.9099 38.5923V39.21H40.2258V39.9834H38.9099V45H37.9753ZM42.1341 38.0928C41.7796 38.0928 41.4896 37.8027 41.4896 37.4482C41.4896 37.0938 41.7796 36.8037 42.1341 36.8037C42.4886 36.8037 42.7786 37.0938 42.7786 37.4482C42.7786 37.8027 42.4886 38.0928 42.1341 38.0928ZM41.6615 45V39.21H42.596V45H41.6615ZM44.4775 45V36.9111H45.412V45H44.4775ZM49.6353 45.1021C47.981 45.1021 46.9819 43.9419 46.9819 42.1265V42.1211C46.9819 40.3325 48.0024 39.1079 49.5762 39.1079C51.1499 39.1079 52.106 40.2788 52.106 42.0083V42.3735H47.938C47.9648 43.5713 48.6255 44.2695 49.6567 44.2695C50.4409 44.2695 50.9243 43.8989 51.0801 43.5498L51.1016 43.5015H52.0361L52.0254 43.5444C51.8267 44.3286 50.9995 45.1021 49.6353 45.1021ZM49.5708 39.9404C48.7114 39.9404 48.0562 40.5259 47.9541 41.627H51.1553C51.0586 40.4829 50.4248 39.9404 49.5708 39.9404Z" fill="#2F50C1"/>
<defs>
<clipPath id="clip0_1_446">
<rect width="25" height="25" fill="white" transform="translate(23.5 4)"/>
</clipPath>
</defs>
</svg>
