
<svg width="68" height="25" viewBox="0 0 68 25" fill="none" xmlns="http://www.w3.org/2000/svg">
<rect x="0.5" y="0.5" width="67" height="24" rx="4.5" fill="#D9E6FD"/>
<rect x="0.5" y="0.5" width="67" height="24" rx="4.5" stroke="white"/>
<path d="M7.87891 17V9H10.7305C11.3503 9 11.8646 9.10677 12.2734 9.32031C12.6849 9.53385 12.9922 9.82943 13.1953 10.207C13.3984 10.582 13.5 11.0156 13.5 11.5078C13.5 11.9974 13.3971 12.4284 13.1914 12.8008C12.9883 13.1706 12.681 13.4583 12.2695 13.6641C11.8607 13.8698 11.3464 13.9727 10.7266 13.9727H8.56641V12.9336H10.6172C11.0078 12.9336 11.3255 12.8776 11.5703 12.7656C11.8177 12.6536 11.9987 12.4909 12.1133 12.2773C12.2279 12.0638 12.2852 11.8073 12.2852 11.5078C12.2852 11.2057 12.2266 10.944 12.1094 10.7227C11.9948 10.5013 11.8138 10.332 11.5664 10.2148C11.3216 10.0951 11 10.0352 10.6016 10.0352H9.08594V17H7.87891ZM11.8281 13.3906L13.8047 17H12.4297L10.4922 13.3906H11.8281ZM14.9688 17V9H19.9844V10.0391H16.1758V12.4766H19.7227V13.5117H16.1758V15.9609H20.0313V17H14.9688ZM28.2412 11.6016H27.0225C26.9756 11.3411 26.8883 11.112 26.7607 10.9141C26.6331 10.7161 26.4769 10.5482 26.292 10.4102C26.1071 10.2721 25.9001 10.168 25.6709 10.0977C25.4443 10.0273 25.2035 9.99219 24.9482 9.99219C24.4873 9.99219 24.0745 10.1081 23.71 10.3398C23.348 10.5716 23.0615 10.9115 22.8506 11.3594C22.6423 11.8073 22.5381 12.3542 22.5381 13C22.5381 13.651 22.6423 14.2005 22.8506 14.6484C23.0615 15.0964 23.3493 15.4349 23.7139 15.6641C24.0785 15.8932 24.4886 16.0078 24.9443 16.0078C25.1969 16.0078 25.4365 15.974 25.6631 15.9062C25.8923 15.8359 26.0993 15.7331 26.2842 15.5977C26.4691 15.4622 26.6253 15.2969 26.7529 15.1016C26.8831 14.9036 26.973 14.6771 27.0225 14.4219L28.2412 14.4258C28.1761 14.819 28.0498 15.181 27.8623 15.5117C27.6774 15.8398 27.4391 16.1237 27.1475 16.3633C26.8584 16.6003 26.5277 16.7839 26.1553 16.9141C25.7829 17.0443 25.3766 17.1094 24.9365 17.1094C24.2438 17.1094 23.6266 16.9453 23.085 16.6172C22.5433 16.2865 22.1162 15.8138 21.8037 15.1992C21.4938 14.5846 21.3389 13.8516 21.3389 13C21.3389 12.1458 21.4951 11.4128 21.8076 10.8008C22.1201 10.1862 22.5472 9.71484 23.0889 9.38672C23.6305 9.05599 24.2464 8.89062 24.9365 8.89062C25.361 8.89062 25.7568 8.95182 26.124 9.07422C26.4938 9.19401 26.8258 9.37109 27.1201 9.60547C27.4144 9.83724 27.6579 10.1211 27.8506 10.457C28.0433 10.7904 28.1735 11.1719 28.2412 11.6016ZM29.6855 17V9H34.7012V10.0391H30.8926V12.4766H34.4395V13.5117H30.8926V15.9609H34.748V17H29.6855ZM37.5205 9V17H36.3135V9H37.5205ZM39.9775 9L42.2041 15.5156H42.2939L44.5205 9H45.8252L42.9463 17H41.5518L38.6729 9H39.9775ZM46.9805 17V9H51.9961V10.0391H48.1875V12.4766H51.7344V13.5117H48.1875V15.9609H52.043V17H46.9805ZM56.1982 17H53.6084V9H56.2803C57.0641 9 57.7373 9.16016 58.2998 9.48047C58.8623 9.79818 59.2933 10.2552 59.5928 10.8516C59.8949 11.4453 60.0459 12.1576 60.0459 12.9883C60.0459 13.8216 59.8936 14.5378 59.5889 15.1367C59.2868 15.7357 58.8493 16.1966 58.2764 16.5195C57.7035 16.8398 57.0107 17 56.1982 17ZM54.8154 15.9453H56.1318C56.7412 15.9453 57.2477 15.8307 57.6514 15.6016C58.055 15.3698 58.3571 15.0352 58.5576 14.5977C58.7581 14.1576 58.8584 13.6211 58.8584 12.9883C58.8584 12.3607 58.7581 11.8281 58.5576 11.3906C58.3597 10.9531 58.0641 10.6211 57.6709 10.3945C57.2777 10.168 56.7894 10.0547 56.2061 10.0547H54.8154V15.9453Z" fill="#2F50C1"/>
</svg>
