
<svg width="72" height="52" viewBox="0 0 72 52" fill="none" xmlns="http://www.w3.org/2000/svg">
<g clip-path="url(#clip0_1_499)">
<path d="M20.7845 4H25.5068V5.2263H21.3977V8.43116H20.1714V4.61315C20.1714 4.27566 20.447 4 20.7845 4ZM24.788 8.18127H26.916V24.8187H24.788V8.18127ZM38.0532 8.18127H39.5732V24.8187H38.0532V8.18127ZM35.1085 8.18127H36.2472V24.8187H35.1085V8.18127ZM28.722 8.18127H29.3686V24.8187H28.722V8.18127ZM45.3131 8.18127H47.2118V24.8187H45.3131V8.18127ZM41.3791 8.18127H43.5071V24.8187H41.3791V8.18127ZM31.1746 8.18127H33.3026V24.8187H31.1746V8.18127ZM21.3977 24.5688V27.7737H25.5068V29H20.7845C20.447 29 20.1714 28.7269 20.1714 28.3869V24.5688H21.3977ZM46.8099 4H51.2153C51.5528 4 51.8284 4.27566 51.8284 4.61315V8.43116H50.6021V5.2263H46.8099V4ZM51.8284 24.5688V28.3869C51.8284 28.7243 51.5528 29 51.2153 29H46.8099V27.7737H50.6021V24.5688H51.8284Z" fill="#A7A3B3"/>
</g>
<path d="M26.5288 45.1826C24.8315 45.1826 23.7358 44.291 23.623 43.0288L23.6177 42.9697H24.5845L24.5898 43.0288C24.6597 43.8022 25.4653 44.291 26.5825 44.291C27.6353 44.291 28.4033 43.7485 28.4033 42.959V42.9536C28.4033 42.3091 27.9575 41.8687 26.894 41.6323L26.0347 41.4443C24.4824 41.1006 23.811 40.3862 23.811 39.2637V39.2583C23.8164 37.9746 24.939 37.0669 26.5396 37.0669C28.0864 37.0669 29.166 37.98 29.2466 39.1348L29.252 39.21H28.2852L28.2744 39.1401C28.167 38.458 27.5225 37.9531 26.5127 37.9585C25.5459 37.9639 24.7993 38.4204 24.7993 39.2314V39.2368C24.7993 39.8545 25.2236 40.2734 26.2764 40.5044L27.1357 40.6978C28.7524 41.0576 29.3916 41.7075 29.3916 42.8247V42.8301C29.3916 44.2803 28.2583 45.1826 26.5288 45.1826ZM33.3194 45.1021C31.6973 45.1021 30.6607 43.9258 30.6607 42.0889V42.0781C30.6607 40.2788 31.692 39.1079 33.314 39.1079C34.7213 39.1079 35.5645 39.9189 35.7364 40.9502L35.7418 40.9824H34.8126L34.8072 40.9663C34.6622 40.397 34.1466 39.9351 33.314 39.9351C32.2721 39.9351 31.6168 40.7729 31.6168 42.0781V42.0889C31.6168 43.4209 32.2828 44.2749 33.314 44.2749C34.0929 44.2749 34.587 43.9312 34.8018 43.2866L34.8126 43.2544L35.7364 43.249L35.7257 43.3081C35.4893 44.3555 34.7105 45.1021 33.3194 45.1021ZM38.7619 45.1021C37.6608 45.1021 36.8283 44.436 36.8283 43.3833V43.3726C36.8283 42.3413 37.591 41.7451 38.9391 41.6646L40.5988 41.5625V41.0361C40.5988 40.3218 40.1637 39.9351 39.299 39.9351C38.6061 39.9351 38.1496 40.1929 37.9992 40.644L37.9938 40.6602H37.0592L37.0646 40.6279C37.215 39.7202 38.0959 39.1079 39.3312 39.1079C40.7438 39.1079 41.5334 39.833 41.5334 41.0361V45H40.5988V44.146H40.5129C40.1476 44.7637 39.5407 45.1021 38.7619 45.1021ZM37.7843 43.3618C37.7843 43.9473 38.2839 44.291 38.9552 44.291C39.9059 44.291 40.5988 43.668 40.5988 42.8408V42.3145L39.0519 42.4111C38.1711 42.4648 37.7843 42.7764 37.7843 43.3511V43.3618ZM43.3074 45V39.21H44.2419V40.0801H44.3279C44.6179 39.4678 45.1604 39.1079 46.0144 39.1079C47.3142 39.1079 48.0393 39.876 48.0393 41.251V45H47.1047V41.4766C47.1047 40.4346 46.6751 39.9351 45.7512 39.9351C44.8274 39.9351 44.2419 40.5581 44.2419 41.5732V45H43.3074Z" fill="#A7A3B3"/>
<defs>
<clipPath id="clip0_1_499">
<rect width="31.6571" height="25" fill="white" transform="translate(20.1714 4)"/>
</clipPath>
</defs>
</svg>
