
<svg width="72" height="52" viewBox="0 0 72 52" fill="none" xmlns="http://www.w3.org/2000/svg">
<g clip-path="url(#clip0_1_494)">
<path d="M39.1474 17.6678V8.35386L34.8079 7.77606L34.6593 12.0994L33.0704 11.017L31.4814 11.9142L31.809 7.39358L29.3757 7.0823V16.559L39.1474 17.6678Z" fill="#2F50C1"/>
<path d="M43.3161 28.2696V18.9557L38.9766 18.3779L38.828 22.7012L37.2391 21.6188L35.6501 22.5161L35.9777 17.9954L33.7275 17.7757V27.2524L43.3161 28.2696Z" fill="#2F50C1"/>
<path d="M29.8111 17.3037L29.6667 21.5212L28.0777 20.4388L26.4888 21.336L26.8163 16.8154L24.5662 16.5061V25.9829L32.8547 26.9248V17.6414L29.8111 17.3037Z" fill="#2F50C1"/>
<path d="M43.8105 15.9873L40.6123 17.8957L43.7882 18.3006L46.8297 16.3841L43.8105 15.9873Z" fill="#2F50C1"/>
<path d="M44.191 19.0432V28.0479L47.6191 26.0032L47.552 16.9252L44.191 19.0432Z" fill="#2F50C1"/>
<path d="M28.6881 15.32V14.437L25.2945 15.9283L27.2415 16.1765L28.6881 15.32Z" fill="#2F50C1"/>
<path d="M40.0223 8.44135V17.4461L43.0761 15.6232L43.4484 15.3078L43.3833 6.32343L40.0223 8.44135Z" fill="#2F50C1"/>
<path d="M38.6164 5.25124L35.2799 7.14537L39.6195 7.69875L42.661 5.78225L38.6164 5.25124Z" fill="#2F50C1"/>
<path d="M32.2362 6.75474L35.4711 4.8362L34.405 4.69582L30.2892 6.5045L32.2362 6.75474Z" fill="#2F50C1"/>
</g>
<path d="M11.5288 45.1826C9.83154 45.1826 8.73584 44.291 8.62305 43.0288L8.61768 42.9697H9.58447L9.58984 43.0288C9.65967 43.8022 10.4653 44.291 11.5825 44.291C12.6353 44.291 13.4033 43.7485 13.4033 42.959V42.9536C13.4033 42.3091 12.9575 41.8687 11.894 41.6323L11.0347 41.4443C9.48242 41.1006 8.81104 40.3862 8.81104 39.2637V39.2583C8.81641 37.9746 9.93896 37.0669 11.5396 37.0669C13.0864 37.0669 14.166 37.98 14.2466 39.1348L14.252 39.21H13.2852L13.2744 39.1401C13.167 38.458 12.5225 37.9531 11.5127 37.9585C10.5459 37.9639 9.79932 38.4204 9.79932 39.2314V39.2368C9.79932 39.8545 10.2236 40.2734 11.2764 40.5044L12.1357 40.6978C13.7524 41.0576 14.3916 41.7075 14.3916 42.8247V42.8301C14.3916 44.2803 13.2583 45.1826 11.5288 45.1826ZM16.0045 45V36.9111H16.939V40.0801H17.025C17.315 39.4678 17.8575 39.1079 18.7115 39.1079C20.0113 39.1079 20.7364 39.876 20.7364 41.251V45H19.8018V41.4766C19.8018 40.4346 19.3722 39.9351 18.4483 39.9351C17.5245 39.9351 16.939 40.5581 16.939 41.5732V45H16.0045ZM22.9884 38.0928C22.634 38.0928 22.3439 37.8027 22.3439 37.4482C22.3439 37.0938 22.634 36.8037 22.9884 36.8037C23.3429 36.8037 23.633 37.0938 23.633 37.4482C23.633 37.8027 23.3429 38.0928 22.9884 38.0928ZM22.5158 45V39.21H23.4504V45H22.5158ZM25.2781 46.9336V39.21H26.2126V40.1338H26.2986C26.6531 39.4893 27.2976 39.1079 28.1033 39.1079C29.5696 39.1079 30.531 40.2949 30.531 42.0996V42.1104C30.531 43.9258 29.575 45.1021 28.1033 45.1021C27.3084 45.1021 26.6155 44.7046 26.2986 44.0869H26.2126V46.9336H25.2781ZM27.8884 44.2749C28.9465 44.2749 29.575 43.4585 29.575 42.1104V42.0996C29.575 40.7515 28.9465 39.9351 27.8884 39.9351C26.8357 39.9351 26.1912 40.7622 26.1912 42.0996V42.1104C26.1912 43.4478 26.8357 44.2749 27.8884 44.2749ZM32.0579 45V39.21H32.9925V40.0908H33.0785C33.3363 39.4678 33.8841 39.1079 34.6414 39.1079C35.4256 39.1079 35.9735 39.5215 36.242 40.123H36.328C36.6395 39.5107 37.3001 39.1079 38.1004 39.1079C39.2821 39.1079 39.9427 39.7847 39.9427 40.9985V45H39.0081V41.2134C39.0081 40.3594 38.6161 39.9351 37.7996 39.9351C36.994 39.9351 36.4622 40.542 36.4622 41.2778V45H35.5277V41.0684C35.5277 40.3809 35.055 39.9351 34.3245 39.9351C33.5672 39.9351 32.9925 40.5957 32.9925 41.4121V45H32.0579ZM44.0585 45.1021C42.4042 45.1021 41.4052 43.9419 41.4052 42.1265V42.1211C41.4052 40.3325 42.4257 39.1079 43.9994 39.1079C45.5732 39.1079 46.5292 40.2788 46.5292 42.0083V42.3735H42.3613C42.3881 43.5713 43.0488 44.2695 44.08 44.2695C44.8642 44.2695 45.3476 43.8989 45.5033 43.5498L45.5248 43.5015H46.4594L46.4487 43.5444C46.2499 44.3286 45.4228 45.1021 44.0585 45.1021ZM43.9941 39.9404C43.1347 39.9404 42.4794 40.5259 42.3774 41.627H45.5785C45.4819 40.4829 44.8481 39.9404 43.9941 39.9404ZM48.0454 45V39.21H48.98V40.0801H49.0659C49.356 39.4678 49.8984 39.1079 50.7524 39.1079C52.0522 39.1079 52.7773 39.876 52.7773 41.251V45H51.8428V41.4766C51.8428 40.4346 51.4131 39.9351 50.4893 39.9351C49.5654 39.9351 48.98 40.5581 48.98 41.5732V45H48.0454ZM56.5924 45.043C55.4 45.043 54.9005 44.6025 54.9005 43.4961V39.9834H53.9874V39.21H54.9005V37.7114H55.8673V39.21H57.1349V39.9834H55.8673V43.2598C55.8673 43.9419 56.1036 44.2158 56.7052 44.2158C56.8717 44.2158 56.963 44.2104 57.1349 44.1943V44.9893C56.9522 45.0215 56.775 45.043 56.5924 45.043ZM60.4772 45.1021C59.1882 45.1021 58.3019 44.479 58.1945 43.5229H59.1506C59.3063 44.0063 59.7682 44.3232 60.5094 44.3232C61.2883 44.3232 61.8415 43.9526 61.8415 43.4263V43.4155C61.8415 43.0234 61.5461 42.7495 60.8317 42.5776L59.9347 42.3628C58.8498 42.105 58.361 41.6323 58.361 40.7998V40.7944C58.361 39.833 59.2848 39.1079 60.5148 39.1079C61.7287 39.1079 62.5719 39.7148 62.7009 40.6602H61.7824C61.6589 40.2036 61.2077 39.8867 60.5094 39.8867C59.8219 39.8867 59.3171 40.2412 59.3171 40.7515V40.7622C59.3171 41.1543 59.6071 41.4014 60.2892 41.5679L61.1808 41.7827C62.2712 42.0459 62.7975 42.5186 62.7975 43.3457V43.3564C62.7975 44.3877 61.7931 45.1021 60.4772 45.1021Z" fill="#5B4CCC"/>
<defs>
<clipPath id="clip0_1_494">
<rect width="24.6134" height="25" fill="white" transform="translate(23.6934 4)"/>
</clipPath>
</defs>
</svg>
