
<svg width="8" height="9" viewBox="0 0 8 9" fill="none" xmlns="http://www.w3.org/2000/svg">
<path d="M4.37165 1.12357C4.11772 0.856953 3.69574 0.846661 3.42912 1.10058C3.1625 1.35451 3.15221 1.77649 3.40613 2.04311L4.37165 1.12357ZM6.66667 4.50001L7.14943 4.95978C7.39464 4.70231 7.39464 4.29771 7.14943 4.04024L6.66667 4.50001ZM3.40613 6.95691C3.15221 7.22353 3.1625 7.64551 3.42912 7.89944C3.69574 8.15336 4.11772 8.14307 4.37165 7.87645L3.40613 6.95691ZM3.40613 2.04311L6.18391 4.95978L7.14943 4.04024L4.37165 1.12357L3.40613 2.04311ZM6.18391 4.04024L3.40613 6.95691L4.37165 7.87645L7.14943 4.95978L6.18391 4.04024ZM6.66667 3.83334L2.02821e-08 3.83334L-2.02821e-08 5.16668L6.66667 5.16668L6.66667 3.83334Z" fill="#2F50C1"/>
</svg>
