
<svg width="72" height="52" viewBox="0 0 72 52" fill="none" xmlns="http://www.w3.org/2000/svg">
<g clip-path="url(#clip0_1_462)">
<path fill-rule="evenodd" clip-rule="evenodd" d="M43.1992 12.2207H47.7388V11.5323C47.0283 8.88503 45.2223 8.9023 42.9895 8.9245C42.6219 8.92944 42.2888 8.93191 42.2691 8.93191H25.2998C24.9099 8.93191 24.5941 8.61611 24.5941 8.22629C24.5941 7.83647 24.9099 7.52067 25.2998 7.52067H42.2691C42.7699 7.52067 42.876 7.52067 42.9771 7.51821C44.8867 7.49847 46.5546 7.4812 47.7388 8.59883V8.27563C47.7388 7.48613 47.4156 6.77065 46.895 6.25007C46.3745 5.7295 45.6565 5.4063 44.8695 5.4063H25.1197C24.3302 5.4063 23.6147 5.7295 23.0941 6.25007C22.5735 6.77065 22.2503 7.4886 22.2503 8.27563V24.717C22.2503 25.5065 22.5735 26.2219 23.0941 26.7425C23.6147 27.2631 24.3326 27.5863 25.1197 27.5863H44.867C45.6565 27.5863 46.372 27.2631 46.8926 26.7425C47.4131 26.2219 47.7363 25.504 47.7363 24.717V22.383H43.1967C41.8274 22.383 40.5815 21.823 39.681 20.9224C38.7805 20.0219 38.2204 18.776 38.2204 17.4067V17.192C38.2204 15.8228 38.7805 14.5768 39.681 13.6763C40.584 12.7807 41.8274 12.2207 43.1992 12.2207ZM49.1476 12.2478C49.6583 12.3243 50.1147 12.5661 50.4626 12.9164C50.8919 13.3457 51.1559 13.9378 51.1559 14.5892V19.9183C51.1559 20.5992 50.8795 21.216 50.433 21.6626C50.09 22.0055 49.6435 22.2498 49.1476 22.3435V24.7194C49.1476 25.8963 48.6665 26.967 47.8918 27.7417C47.1171 28.5164 46.0463 28.9975 44.8695 28.9975H25.1197C23.9428 28.9975 22.872 28.5164 22.0974 27.7417C21.3227 26.9695 20.8416 25.8987 20.8416 24.7219V8.2781C20.8416 7.10125 21.3227 6.03049 22.0974 5.2558C22.872 4.4811 23.9428 4 25.1197 4H44.867C46.0439 4 47.1146 4.4811 47.8893 5.2558C48.664 6.03049 49.1451 7.10125 49.1451 8.2781V12.2478H49.1476ZM42.5873 15.3762C43.5865 15.3762 44.3958 16.1854 44.3958 17.1846C44.3958 18.1839 43.5865 18.9931 42.5873 18.9931C41.5881 18.9931 40.7789 18.1839 40.7789 17.1846C40.7789 16.1854 41.5881 15.3762 42.5873 15.3762Z" fill="white"/>
<path d="M43.1992 12.2207H47.7388V11.5323C47.0283 8.88503 45.2223 8.9023 42.9895 8.9245C42.6219 8.92944 42.2888 8.93191 42.2691 8.93191H25.2998C24.9099 8.93191 24.5941 8.61611 24.5941 8.22629C24.5941 7.83647 24.9099 7.52067 25.2998 7.52067H42.2691C42.7699 7.52067 42.876 7.52067 42.9771 7.51821C44.8867 7.49847 46.5546 7.4812 47.7388 8.59883V8.27563C47.7388 7.48613 47.4156 6.77065 46.895 6.25007C46.3745 5.7295 45.6565 5.4063 44.8695 5.4063H25.1197C24.3302 5.4063 23.6147 5.7295 23.0941 6.25007C22.5735 6.77065 22.2503 7.4886 22.2503 8.27563V24.717C22.2503 25.5065 22.5735 26.2219 23.0941 26.7425C23.6147 27.2631 24.3326 27.5863 25.1197 27.5863H44.867C45.6565 27.5863 46.372 27.2631 46.8926 26.7425C47.4131 26.2219 47.7363 25.504 47.7363 24.717V22.383H43.1967C41.8274 22.383 40.5815 21.823 39.681 20.9224C38.7805 20.0219 38.2204 18.776 38.2204 17.4067V17.192C38.2204 15.8228 38.7805 14.5768 39.681 13.6763C40.584 12.7807 41.8274 12.2207 43.1992 12.2207Z" fill="#2F50C1"/>
<path d="M42.5873 15.3762C43.5865 15.3762 44.3958 16.1854 44.3958 17.1846C44.3958 18.1839 43.5865 18.9931 42.5873 18.9931C41.5881 18.9931 40.7789 18.1839 40.7789 17.1846C40.7789 16.1854 41.5881 15.3762 42.5873 15.3762Z" fill="#2F50C1"/>
</g>
<path d="M22.0942 45L19.9834 37.2495H20.9932L22.5347 43.5498H22.5991L24.334 37.2495H25.3115L27.0464 43.5498H27.1108L28.6523 37.2495H29.6621L27.5513 45H26.6382L24.855 38.8823H24.7905L23.0073 45H22.0942ZM32.1344 45.1021C31.0333 45.1021 30.2008 44.436 30.2008 43.3833V43.3726C30.2008 42.3413 30.9635 41.7451 32.3116 41.6646L33.9713 41.5625V41.0361C33.9713 40.3218 33.5362 39.9351 32.6715 39.9351C31.9786 39.9351 31.5221 40.1929 31.3717 40.644L31.3663 40.6602H30.4317L30.4371 40.6279C30.5875 39.7202 31.4683 39.1079 32.7037 39.1079C34.1163 39.1079 34.9058 39.833 34.9058 41.0361V45H33.9713V44.146H33.8853C33.5201 44.7637 32.9132 45.1021 32.1344 45.1021ZM31.1568 43.3618C31.1568 43.9473 31.6563 44.291 32.3277 44.291C33.2784 44.291 33.9713 43.668 33.9713 42.8408V42.3145L32.4244 42.4111C31.5435 42.4648 31.1568 42.7764 31.1568 43.3511V43.3618ZM36.7336 45V36.9111H37.6681V45H36.7336ZM39.5818 45V36.9111H40.5164V45H39.5818ZM44.7396 45.1021C43.0853 45.1021 42.0863 43.9419 42.0863 42.1265V42.1211C42.0863 40.3325 43.1068 39.1079 44.6805 39.1079C46.2542 39.1079 47.2103 40.2788 47.2103 42.0083V42.3735H43.0423C43.0692 43.5713 43.7298 44.2695 44.7611 44.2695C45.5452 44.2695 46.0286 43.8989 46.1844 43.5498L46.2059 43.5015H47.1405L47.1297 43.5444C46.931 44.3286 46.1038 45.1021 44.7396 45.1021ZM44.6751 39.9404C43.8158 39.9404 43.1605 40.5259 43.0584 41.627H46.2596C46.1629 40.4829 45.5291 39.9404 44.6751 39.9404ZM50.7836 45.043C49.5912 45.043 49.0917 44.6025 49.0917 43.4961V39.9834H48.1786V39.21H49.0917V37.7114H50.0585V39.21H51.3261V39.9834H50.0585V43.2598C50.0585 43.9419 50.2948 44.2158 50.8964 44.2158C51.0629 44.2158 51.1542 44.2104 51.3261 44.1943V44.9893C51.1435 45.0215 50.9662 45.043 50.7836 45.043Z" fill="#2F50C1"/>
<defs>
<clipPath id="clip0_1_462">
<rect width="30.3168" height="25" fill="white" transform="translate(20.8416 4)"/>
</clipPath>
</defs>
</svg>
