
<svg width="142" height="40" viewBox="0 0 142 40" fill="none" xmlns="http://www.w3.org/2000/svg">
<rect width="142" height="40" rx="10" fill="#25D366"/>
<path d="M16.004 30L17.356 25.032C16.4652 23.5049 15.9971 21.768 16 20C16 14.477 20.477 10 26 10C31.523 10 36 14.477 36 20C36 25.523 31.523 30 26 30C24.2328 30.0029 22.4967 29.5352 20.97 28.645L16.004 30ZM22.391 15.308C22.2619 15.316 22.1357 15.35 22.02 15.408C21.9115 15.4694 21.8125 15.5462 21.726 15.636C21.606 15.749 21.538 15.847 21.465 15.942C21.0954 16.423 20.8966 17.0134 20.9 17.62C20.902 18.11 21.03 18.587 21.23 19.033C21.639 19.935 22.312 20.89 23.201 21.775C23.415 21.988 23.624 22.202 23.849 22.401C24.9524 23.3725 26.2673 24.073 27.689 24.447L28.258 24.534C28.443 24.544 28.628 24.53 28.814 24.521C29.1053 24.506 29.3896 24.4271 29.647 24.29C29.778 24.2225 29.9058 24.1491 30.03 24.07C30.03 24.07 30.073 24.042 30.155 23.98C30.29 23.88 30.373 23.809 30.485 23.692C30.568 23.606 30.64 23.505 30.695 23.39C30.773 23.227 30.851 22.916 30.883 22.657C30.907 22.459 30.9 22.351 30.897 22.284C30.893 22.177 30.804 22.066 30.707 22.019L30.125 21.758C30.125 21.758 29.255 21.379 28.724 21.137C28.668 21.1126 28.608 21.0987 28.547 21.096C28.4786 21.089 28.4095 21.0967 28.3443 21.1186C28.2791 21.1405 28.2193 21.1761 28.169 21.223V21.221C28.164 21.221 28.097 21.278 27.374 22.154C27.3325 22.2098 27.2754 22.2519 27.2098 22.2751C27.1443 22.2982 27.0733 22.3013 27.006 22.284C26.9409 22.2666 26.877 22.2445 26.815 22.218C26.691 22.166 26.648 22.146 26.563 22.109L26.558 22.107C25.9859 21.8572 25.4562 21.5198 24.988 21.107C24.862 20.997 24.745 20.877 24.625 20.761C24.2316 20.3842 23.8887 19.958 23.605 19.493L23.546 19.398C23.5036 19.3342 23.4694 19.2653 23.444 19.193C23.406 19.046 23.505 18.928 23.505 18.928C23.505 18.928 23.748 18.662 23.861 18.518C23.9551 18.3983 24.0429 18.2738 24.124 18.145C24.242 17.955 24.279 17.76 24.217 17.609C23.937 16.925 23.647 16.244 23.349 15.568C23.29 15.434 23.115 15.338 22.956 15.319C22.902 15.313 22.848 15.307 22.794 15.303C22.6597 15.2963 22.5251 15.2977 22.391 15.307V15.308Z" fill="white"/>
<path d="M49.5227 26L46.3409 14.3636H47.7727L50.2045 23.8409H50.3182L52.7955 14.3636H54.3864L56.8636 23.8409H56.9773L59.4091 14.3636H60.8409L57.6591 26H56.2045L53.6364 16.7273H53.5455L50.9773 26H49.5227ZM63.7557 20.75V26H62.4148V14.3636H63.7557V18.6364H63.8693C64.0739 18.1856 64.3807 17.8277 64.7898 17.5625C65.2027 17.2936 65.7519 17.1591 66.4375 17.1591C67.0322 17.1591 67.553 17.2784 68 17.517C68.447 17.7519 68.7936 18.1136 69.0398 18.6023C69.2898 19.0871 69.4148 19.7045 69.4148 20.4545V26H68.0739V20.5455C68.0739 19.8523 67.8939 19.3163 67.5341 18.9375C67.178 18.5549 66.6837 18.3636 66.0511 18.3636C65.6117 18.3636 65.2178 18.4564 64.8693 18.642C64.5246 18.8277 64.2519 19.0985 64.0511 19.4545C63.8542 19.8106 63.7557 20.2424 63.7557 20.75ZM74.4361 26.2045C73.883 26.2045 73.3812 26.1004 72.9304 25.892C72.4796 25.6799 72.1217 25.375 71.8565 24.9773C71.5914 24.5758 71.4588 24.0909 71.4588 23.5227C71.4588 23.0227 71.5573 22.6174 71.7543 22.3068C71.9512 21.9924 72.2145 21.7462 72.544 21.5682C72.8736 21.3902 73.2372 21.2576 73.6349 21.1705C74.0365 21.0795 74.4399 21.0076 74.8452 20.9545C75.3755 20.8864 75.8054 20.8352 76.1349 20.8011C76.4683 20.7633 76.7107 20.7008 76.8622 20.6136C77.0175 20.5265 77.0952 20.375 77.0952 20.1591V20.1136C77.0952 19.553 76.9418 19.1174 76.6349 18.8068C76.3319 18.4962 75.8717 18.3409 75.2543 18.3409C74.6141 18.3409 74.1122 18.4811 73.7486 18.7614C73.3849 19.0417 73.1293 19.3409 72.9815 19.6591L71.7088 19.2045C71.9361 18.6742 72.2391 18.2614 72.6179 17.9659C73.0005 17.6667 73.4171 17.4583 73.8679 17.3409C74.3224 17.2197 74.7694 17.1591 75.2088 17.1591C75.4891 17.1591 75.8111 17.1932 76.1747 17.2614C76.5421 17.3258 76.8963 17.4602 77.2372 17.6648C77.5819 17.8693 77.8679 18.178 78.0952 18.5909C78.3224 19.0038 78.4361 19.5568 78.4361 20.25V26H77.0952V24.8182H77.027C76.9361 25.0076 76.7846 25.2102 76.5724 25.4261C76.3603 25.642 76.0781 25.8258 75.7259 25.9773C75.3736 26.1288 74.9437 26.2045 74.4361 26.2045ZM74.6406 25C75.1709 25 75.6179 24.8958 75.9815 24.6875C76.349 24.4792 76.6255 24.2102 76.8111 23.8807C77.0005 23.5511 77.0952 23.2045 77.0952 22.8409V21.6136C77.0384 21.6818 76.9134 21.7443 76.7202 21.8011C76.5308 21.8542 76.3111 21.9015 76.0611 21.9432C75.8149 21.9811 75.5743 22.0152 75.3395 22.0455C75.1084 22.072 74.9209 22.0947 74.777 22.1136C74.4285 22.1591 74.1027 22.233 73.7997 22.3352C73.5005 22.4337 73.258 22.5833 73.0724 22.7841C72.8906 22.9811 72.7997 23.25 72.7997 23.5909C72.7997 24.0568 72.9721 24.4091 73.3168 24.6477C73.6652 24.8826 74.1065 25 74.6406 25ZM84.679 17.2727V18.4091H80.1562V17.2727H84.679ZM81.4744 15.1818H82.8153V23.5C82.8153 23.8788 82.8703 24.1629 82.9801 24.3523C83.0938 24.5379 83.2377 24.6629 83.4119 24.7273C83.59 24.7879 83.7775 24.8182 83.9744 24.8182C84.1222 24.8182 84.2434 24.8106 84.3381 24.7955C84.4328 24.7765 84.5085 24.7614 84.5653 24.75L84.8381 25.9545C84.7472 25.9886 84.6203 26.0227 84.4574 26.0568C84.2945 26.0947 84.0881 26.1136 83.8381 26.1136C83.4593 26.1136 83.0881 26.0322 82.7244 25.8693C82.3646 25.7064 82.0653 25.4583 81.8267 25.125C81.5919 24.7917 81.4744 24.3712 81.4744 23.8636V15.1818ZM92.7216 19.2273L91.517 19.5682C91.4413 19.3674 91.3295 19.1723 91.1818 18.983C91.0379 18.7898 90.8409 18.6307 90.5909 18.5057C90.3409 18.3807 90.0208 18.3182 89.6307 18.3182C89.0966 18.3182 88.6515 18.4413 88.2955 18.6875C87.9432 18.9299 87.767 19.2386 87.767 19.6136C87.767 19.947 87.8883 20.2102 88.1307 20.4034C88.3731 20.5966 88.7519 20.7576 89.267 20.8864L90.5625 21.2045C91.3428 21.3939 91.9242 21.6837 92.3068 22.0739C92.6894 22.4602 92.8807 22.9583 92.8807 23.5682C92.8807 24.0682 92.7367 24.5152 92.4489 24.9091C92.1648 25.303 91.767 25.6136 91.2557 25.8409C90.7443 26.0682 90.1496 26.1818 89.4716 26.1818C88.5814 26.1818 87.8447 25.9886 87.2614 25.6023C86.678 25.2159 86.3087 24.6515 86.1534 23.9091L87.4261 23.5909C87.5473 24.0606 87.7765 24.4129 88.1136 24.6477C88.4545 24.8826 88.8996 25 89.4489 25C90.0739 25 90.5701 24.8674 90.9375 24.6023C91.3087 24.3333 91.4943 24.0114 91.4943 23.6364C91.4943 23.3333 91.3883 23.0795 91.1761 22.875C90.964 22.6667 90.6383 22.5114 90.1989 22.4091L88.7443 22.0682C87.9451 21.8788 87.358 21.5852 86.983 21.1875C86.6117 20.786 86.4261 20.2841 86.4261 19.6818C86.4261 19.1894 86.5644 18.7538 86.8409 18.375C87.1212 17.9962 87.5019 17.6989 87.983 17.483C88.4678 17.267 89.017 17.1591 89.6307 17.1591C90.4943 17.1591 91.1723 17.3485 91.6648 17.7273C92.161 18.1061 92.5133 18.6061 92.7216 19.2273ZM95.5582 26H94.081L98.3537 14.3636H99.8082L104.081 26H102.604L99.1264 16.2045H99.0355L95.5582 26ZM96.1037 21.4545H102.058V22.7045H96.1037V21.4545ZM105.712 29.2727V17.2727H107.007V18.6591H107.166C107.265 18.5076 107.401 18.3144 107.575 18.0795C107.753 17.8409 108.007 17.6288 108.337 17.4432C108.67 17.2538 109.121 17.1591 109.689 17.1591C110.424 17.1591 111.071 17.3428 111.632 17.7102C112.193 18.0777 112.63 18.5985 112.945 19.2727C113.259 19.947 113.416 20.7424 113.416 21.6591C113.416 22.5833 113.259 23.3845 112.945 24.0625C112.63 24.7367 112.195 25.2595 111.638 25.6307C111.081 25.9981 110.439 26.1818 109.712 26.1818C109.151 26.1818 108.702 26.089 108.365 25.9034C108.028 25.714 107.768 25.5 107.587 25.2614C107.405 25.0189 107.265 24.8182 107.166 24.6591H107.053V29.2727H105.712ZM107.03 21.6364C107.03 22.2955 107.126 22.8769 107.32 23.3807C107.513 23.8807 107.795 24.2727 108.166 24.5568C108.537 24.8371 108.992 24.9773 109.53 24.9773C110.09 24.9773 110.558 24.8295 110.933 24.5341C111.312 24.2348 111.596 23.8333 111.786 23.3295C111.979 22.822 112.075 22.2576 112.075 21.6364C112.075 21.0227 111.981 20.4697 111.791 19.9773C111.606 19.4811 111.323 19.089 110.945 18.8011C110.57 18.5095 110.098 18.3636 109.53 18.3636C108.984 18.3636 108.526 18.5019 108.155 18.7784C107.784 19.0511 107.503 19.4337 107.314 19.9261C107.125 20.4148 107.03 20.9848 107.03 21.6364ZM115.462 29.2727V17.2727H116.757V18.6591H116.916C117.015 18.5076 117.151 18.3144 117.325 18.0795C117.503 17.8409 117.757 17.6288 118.087 17.4432C118.42 17.2538 118.871 17.1591 119.439 17.1591C120.174 17.1591 120.821 17.3428 121.382 17.7102C121.943 18.0777 122.38 18.5985 122.695 19.2727C123.009 19.947 123.166 20.7424 123.166 21.6591C123.166 22.5833 123.009 23.3845 122.695 24.0625C122.38 24.7367 121.945 25.2595 121.388 25.6307C120.831 25.9981 120.189 26.1818 119.462 26.1818C118.901 26.1818 118.452 26.089 118.115 25.9034C117.778 25.714 117.518 25.5 117.337 25.2614C117.155 25.0189 117.015 24.8182 116.916 24.6591H116.803V29.2727H115.462ZM116.78 21.6364C116.78 22.2955 116.876 22.8769 117.07 23.3807C117.263 23.8807 117.545 24.2727 117.916 24.5568C118.287 24.8371 118.742 24.9773 119.28 24.9773C119.84 24.9773 120.308 24.8295 120.683 24.5341C121.062 24.2348 121.346 23.8333 121.536 23.3295C121.729 22.822 121.825 22.2576 121.825 21.6364C121.825 21.0227 121.731 20.4697 121.541 19.9773C121.356 19.4811 121.073 19.089 120.695 18.8011C120.32 18.5095 119.848 18.3636 119.28 18.3636C118.734 18.3636 118.276 18.5019 117.905 18.7784C117.534 19.0511 117.253 19.4337 117.064 19.9261C116.875 20.4148 116.78 20.9848 116.78 21.6364Z" fill="white"/>
</svg>
